<?xml version="1.0" encoding="utf-8"?>
<!-- Generator: Adobe Illustrator 23.0.3, SVG Export Plug-In . SVG Version: 6.00 Build 0)  -->
<svg version="1.1"
	 id="svg293" xmlns:cc="http://creativecommons.org/ns#" xmlns:dc="http://purl.org/dc/elements/1.1/" xmlns:inkscape="http://www.inkscape.org/namespaces/inkscape" xmlns:rdf="http://www.w3.org/1999/02/22-rdf-syntax-ns#" xmlns:sodipodi="http://sodipodi.sourceforge.net/DTD/sodipodi-0.dtd" xmlns:svg="http://www.w3.org/2000/svg"
	 xmlns="http://www.w3.org/2000/svg" xmlns:xlink="http://www.w3.org/1999/xlink" x="0px" y="0px" viewBox="0 0 460 342"
	 style="enable-background:new 0 0 460 342;" xml:space="preserve">
<style type="text/css">
	.st0{stroke:#000000;stroke-width:0.8;stroke-linejoin:round;}
	.st1{fill:none;stroke:#1F77B4;stroke-width:1.5;stroke-linecap:square;stroke-linejoin:round;}
	.st2{fill:none;stroke:#FF7F0E;stroke-width:1.5;stroke-linecap:square;stroke-linejoin:round;}
	.st3{fill:none;stroke:#2CA02C;stroke-width:1.5;stroke-linecap:square;stroke-linejoin:round;}
	.st4{fill:none;stroke:#D62728;stroke-width:1.5;stroke-linecap:square;stroke-linejoin:round;}
	.st5{fill:none;stroke:#9467BD;stroke-width:1.5;stroke-linecap:square;stroke-linejoin:round;}
	.st6{fill:none;stroke:#8C564B;stroke-width:1.5;stroke-linecap:square;stroke-linejoin:round;}
	.st7{fill:none;stroke:#E377C2;stroke-width:1.5;stroke-linecap:square;stroke-linejoin:round;}
	.st8{fill:none;stroke:#7F7F7F;stroke-width:1.5;stroke-linecap:square;stroke-linejoin:round;}
	.st9{fill:none;stroke:#BCBD22;stroke-width:1.5;stroke-linecap:square;stroke-linejoin:round;}
	.st10{fill:none;stroke:#17BECF;stroke-width:1.5;stroke-linecap:square;stroke-linejoin:round;}
	.st11{fill:none;stroke:#000000;stroke-width:0.8;stroke-linecap:square;}
	.st12{font-family:'Helvetica';}
	.st13{font-size:12px;}
</style>
<sodipodi:namedview  bordercolor="#666666" borderopacity="1" gridtolerance="10" guidetolerance="10" id="namedview295" inkscape:current-layer="svg293" inkscape:cx="357.47891" inkscape:cy="224.12611" inkscape:pageopacity="0" inkscape:pageshadow="2" inkscape:window-height="1675" inkscape:window-maximized="1" inkscape:window-width="3200" inkscape:window-x="-13" inkscape:window-y="-13" inkscape:zoom="3.4956522" objecttolerance="10" pagecolor="#ffffff" showgrid="false">
	</sodipodi:namedview>
<g id="figure_1">
	<g id="axes_1">
		<g id="matplotlib.axis_1">
			<g id="xtick_1">
				<g id="line2d_1">
					<g id="g17">
						<g id="use15">
							<path id="meff5f38e5f" class="st0" d="M73.8,304.4v3.5"/>
						</g>
					</g>
				</g>
				<g id="text_1">
					<g id="g25" transform="translate(70.651477 318.978437)scale(0.1 -0.1)">
						<g id="use23">
							<path id="DejaVuSans-30" d="M31.8,66.4c-5.1,0-8.9-2.5-11.5-7.5c-2.6-5-3.8-12.5-3.8-22.5c0-10,1.3-17.5,3.8-22.5
								c2.6-5,6.4-7.5,11.5-7.5c5.1,0,8.9,2.5,11.5,7.5c2.6,5,3.8,12.5,3.8,22.5c0,10-1.3,17.5-3.8,22.5
								C40.7,63.9,36.9,66.4,31.8,66.4z M31.8,74.2c8.2,0,14.4-3.2,18.7-9.7c4.3-6.5,6.5-15.8,6.5-28.1c0-12.3-2.2-21.6-6.5-28.1
								C46.2,1.8,40-1.4,31.8-1.4c-8.2,0-14.4,3.2-18.7,9.7c-4.3,6.5-6.5,15.8-6.5,28.1c0,12.3,2.2,21.7,6.5,28.1
								C17.4,71,23.6,74.2,31.8,74.2z"/>
						</g>
					</g>
				</g>
			</g>
			<g id="xtick_2">
				<g id="line2d_2">
					<g id="g31">
						<g id="use29">
							<path class="st0" d="M123.8,304.4v3.5"/>
						</g>
					</g>
				</g>
				<g id="text_2">
					<g id="g39" transform="translate(120.59833 318.978437)scale(0.1 -0.1)">
						<g id="use37">
							<path id="DejaVuSans-31" d="M12.4,8.3h16.1v55.6L11,60.4v9l17.4,3.5h9.9V8.3h16.1V0h-42V8.3z"/>
						</g>
					</g>
				</g>
			</g>
			<g id="xtick_3">
				<g id="line2d_3">
					<g id="g45">
						<g id="use43">
							<path class="st0" d="M173.7,304.4v3.5"/>
						</g>
					</g>
				</g>
				<g id="text_3">
					<g id="g53" transform="translate(170.545184 318.978437)scale(0.1 -0.1)">
						<g id="use51">
							<path id="DejaVuSans-32" d="M19.2,8.3h34.4V0H7.3v8.3c3.7,3.9,8.8,9.1,15.3,15.6c6.5,6.5,10.5,10.7,12.2,12.6
								c3.2,3.5,5.4,6.5,6.6,9c1.3,2.5,1.9,4.9,1.9,7.2c0,3.9-1.4,7-4.1,9.5c-2.7,2.4-6.3,3.7-10.6,3.7c-3.1,0-6.4-0.5-9.8-1.6
								c-3.4-1.1-7.1-2.7-11-4.9v10c4,1.6,7.7,2.8,11.1,3.6c3.5,0.8,6.6,1.2,9.5,1.2c7.6,0,13.6-1.9,18.1-5.7
								c4.5-3.8,6.7-8.8,6.7-15.1c0-3-0.6-5.8-1.7-8.5c-1.1-2.7-3.2-5.8-6.1-9.5c-0.8-0.9-3.4-3.7-7.8-8.2
								C33.3,22.7,27.1,16.4,19.2,8.3z"/>
						</g>
					</g>
				</g>
			</g>
			<g id="xtick_4">
				<g id="line2d_4">
					<g id="g59">
						<g id="use57">
							<path class="st0" d="M223.7,304.4v3.5"/>
						</g>
					</g>
				</g>
				<g id="text_4">
					<g id="g67" transform="translate(220.492037 318.978437)scale(0.1 -0.1)">
						<g id="use65">
							<path id="DejaVuSans-33" d="M40.6,39.3c4.7-1,8.4-3.1,11-6.3c2.7-3.2,4-7.1,4-11.8c0-7.2-2.5-12.8-7.4-16.7
								c-4.9-3.9-12-5.9-21.1-5.9c-3.1,0-6.2,0.3-9.4,0.9S11.1,1,7.6,2.2v9.5c2.7-1.6,5.7-2.8,9-3.6c3.3-0.8,6.7-1.2,10.2-1.2
								c6.2,0,10.9,1.2,14.1,3.7s4.9,6,4.9,10.6c0,4.3-1.5,7.7-4.5,10.1c-3,2.4-7.2,3.6-12.6,3.6h-8.5V43h8.9c4.8,0,8.6,1,11.1,2.9
								s3.9,4.7,3.9,8.4c0,3.7-1.3,6.6-4,8.6c-2.6,2-6.4,3-11.4,3c-2.7,0-5.6-0.3-8.7-0.9c-3.1-0.6-6.5-1.5-10.2-2.7v8.8
								c3.8,1,7.3,1.8,10.5,2.3s6.4,0.8,9.2,0.8c7.5,0,13.4-1.7,17.8-5.1c4.4-3.4,6.5-8,6.5-13.8c0-4-1.2-7.5-3.5-10.2
								S44.8,40.4,40.6,39.3z"/>
						</g>
					</g>
				</g>
			</g>
			<g id="xtick_5">
				<g id="line2d_5">
					<g id="g73">
						<g id="use71">
							<path class="st0" d="M273.6,304.4v3.5"/>
						</g>
					</g>
				</g>
				<g id="text_5">
					<g id="g81" transform="translate(270.43889 318.978437)scale(0.1 -0.1)">
						<g id="use79">
							<path id="DejaVuSans-34" d="M37.8,64.3L12.9,25.4h24.9V64.3z M35.2,72.9h12.4V25.4H58v-8.2H47.6V0h-9.8v17.2H4.9v9.5
								L35.2,72.9z"/>
						</g>
					</g>
				</g>
			</g>
			<g id="xtick_6">
				<g id="line2d_6">
					<g id="g87">
						<g id="use85">
							<path class="st0" d="M323.6,304.4v3.5"/>
						</g>
					</g>
				</g>
				<g id="text_6">
					<g id="g95" transform="translate(320.385743 318.978437)scale(0.1 -0.1)">
						<g id="use93">
							<path id="DejaVuSans-35" d="M10.8,72.9h38.7v-8.3H19.8V46.7c1.4,0.5,2.9,0.9,4.3,1.1c1.4,0.2,2.9,0.4,4.3,0.4
								c8.1,0,14.6-2.2,19.3-6.7c4.8-4.5,7.1-10.5,7.1-18.1c0-7.8-2.4-13.9-7.3-18.3c-4.9-4.3-11.8-6.5-20.7-6.5
								c-3.1,0-6.2,0.3-9.4,0.8c-3.2,0.5-6.4,1.3-9.8,2.3v9.9c2.9-1.6,6-2.8,9.1-3.6s6.4-1.2,9.9-1.2c5.6,0,10.1,1.5,13.4,4.4
								c3.3,3,4.9,7,4.9,12.1c0,5.1-1.6,9.1-4.9,12c-3.3,3-7.7,4.5-13.4,4.5c-2.6,0-5.3-0.3-7.9-0.9c-2.6-0.6-5.3-1.5-8-2.7V72.9z"
								/>
						</g>
					</g>
				</g>
			</g>
			<g id="xtick_7">
				<g id="line2d_7">
					<g id="g101">
						<g id="use99">
							<path class="st0" d="M373.5,304.4v3.5"/>
						</g>
					</g>
				</g>
				<g id="text_7">
					<g id="g109" transform="translate(370.332596 318.978437)scale(0.1 -0.1)">
						<g id="use107">
							<path id="DejaVuSans-36" d="M33,40.4c-4.4,0-7.9-1.5-10.5-4.5c-2.6-3-3.9-7.2-3.9-12.4c0-5.2,1.3-9.4,3.9-12.4
								c2.6-3,6.1-4.6,10.5-4.6s7.9,1.5,10.5,4.6c2.6,3.1,3.9,7.2,3.9,12.4c0,5.3-1.3,9.4-3.9,12.4C40.9,38.9,37.4,40.4,33,40.4z
								 M52.6,71.3v-9c-2.5,1.2-5,2.1-7.5,2.7c-2.5,0.6-5,0.9-7.5,0.9c-6.5,0-11.5-2.2-14.9-6.6c-3.4-4.4-5.4-11-5.9-19.9
								c1.9,2.8,4.3,5,7.2,6.5c2.9,1.5,6.1,2.3,9.6,2.3c7.3,0,13.1-2.2,17.4-6.7c4.2-4.4,6.4-10.5,6.4-18.1c0-7.5-2.2-13.5-6.6-18
								C46.3,0.8,40.4-1.4,33-1.4c-8.4,0-14.9,3.2-19.3,9.7C9.2,14.7,7,24.1,7,36.4c0,11.5,2.7,20.7,8.2,27.6s12.8,10.3,22,10.3
								c2.5,0,5-0.2,7.5-0.7S49.9,72.3,52.6,71.3z"/>
						</g>
					</g>
				</g>
			</g>
		</g>
		<g id="matplotlib.axis_2">
			<g id="ytick_1">
				<g id="line2d_8">
					<g id="g119">
						<g id="use117">
							<path id="m32153d3b87" class="st0" d="M57.6,294.4h-3.5"/>
						</g>
					</g>
				</g>
				<g id="text_8">
					<g id="g124" transform="translate(44.2375 298.184717)scale(0.1 -0.1)">
						<g id="use122">
							<path d="M31.8,66.4c-5.1,0-8.9-2.5-11.5-7.5c-2.6-5-3.8-12.5-3.8-22.5c0-10,1.3-17.5,3.8-22.5c2.6-5,6.4-7.5,11.5-7.5
								c5.1,0,8.9,2.5,11.5,7.5c2.6,5,3.8,12.5,3.8,22.5c0,10-1.3,17.5-3.8,22.5C40.7,63.9,36.9,66.4,31.8,66.4z M31.8,74.2
								c8.2,0,14.4-3.2,18.7-9.7c4.3-6.5,6.5-15.8,6.5-28.1c0-12.3-2.2-21.6-6.5-28.1C46.2,1.8,40-1.4,31.8-1.4
								c-8.2,0-14.4,3.2-18.7,9.7c-4.3,6.5-6.5,15.8-6.5,28.1c0,12.3,2.2,21.7,6.5,28.1C17.4,71,23.6,74.2,31.8,74.2z"/>
						</g>
					</g>
				</g>
			</g>
			<g id="ytick_2">
				<g id="line2d_9">
					<g id="g130">
						<g id="use128">
							<path class="st0" d="M57.6,263.2h-3.5"/>
						</g>
					</g>
				</g>
				<g id="text_9">
					<g id="g137" transform="translate(37.875 267.039698)scale(0.1 -0.1)">
						<g id="use133">
							<path d="M19.2,8.3h34.4V0H7.3v8.3c3.7,3.9,8.8,9.1,15.3,15.6c6.5,6.5,10.5,10.7,12.2,12.6c3.2,3.5,5.4,6.5,6.6,9
								c1.3,2.5,1.9,4.9,1.9,7.2c0,3.9-1.4,7-4.1,9.5c-2.7,2.4-6.3,3.7-10.6,3.7c-3.1,0-6.4-0.5-9.8-1.6c-3.4-1.1-7.1-2.7-11-4.9v10
								c4,1.6,7.7,2.8,11.1,3.6c3.5,0.8,6.6,1.2,9.5,1.2c7.6,0,13.6-1.9,18.1-5.7c4.5-3.8,6.7-8.8,6.7-15.1c0-3-0.6-5.8-1.7-8.5
								c-1.1-2.7-3.2-5.8-6.1-9.5c-0.8-0.9-3.4-3.7-7.8-8.2C33.3,22.7,27.1,16.4,19.2,8.3z"/>
						</g>
						<g id="use135">
							<path d="M95.4,66.4c-5.1,0-8.9-2.5-11.5-7.5c-2.6-5-3.8-12.5-3.8-22.5c0-10,1.3-17.5,3.8-22.5c2.6-5,6.4-7.5,11.5-7.5
								c5.1,0,8.9,2.5,11.5,7.5c2.6,5,3.8,12.5,3.8,22.5c0,10-1.3,17.5-3.8,22.5C104.4,63.9,100.5,66.4,95.4,66.4z M95.4,74.2
								c8.2,0,14.4-3.2,18.7-9.7c4.3-6.5,6.5-15.8,6.5-28.1c0-12.3-2.2-21.6-6.5-28.1c-4.3-6.5-10.6-9.7-18.7-9.7
								c-8.2,0-14.4,3.2-18.7,9.7c-4.3,6.5-6.5,15.8-6.5,28.1c0,12.3,2.2,21.7,6.5,28.1C81,71,87.2,74.2,95.4,74.2z"/>
						</g>
					</g>
				</g>
			</g>
			<g id="ytick_3">
				<g id="line2d_10">
					<g id="g143">
						<g id="use141">
							<path class="st0" d="M57.6,232.1h-3.5"/>
						</g>
					</g>
				</g>
				<g id="text_10">
					<g id="g150" transform="translate(37.875 235.89468)scale(0.1 -0.1)">
						<g id="use146">
							<path d="M37.8,64.3L12.9,25.4h24.9V64.3z M35.2,72.9h12.4V25.4H58v-8.2H47.6V0h-9.8v17.2H4.9v9.5L35.2,72.9z"/>
						</g>
						<g id="use148">
							<path d="M95.4,66.4c-5.1,0-8.9-2.5-11.5-7.5c-2.6-5-3.8-12.5-3.8-22.5c0-10,1.3-17.5,3.8-22.5c2.6-5,6.4-7.5,11.5-7.5
								c5.1,0,8.9,2.5,11.5,7.5c2.6,5,3.8,12.5,3.8,22.5c0,10-1.3,17.5-3.8,22.5C104.4,63.9,100.5,66.4,95.4,66.4z M95.4,74.2
								c8.2,0,14.4-3.2,18.7-9.7c4.3-6.5,6.5-15.8,6.5-28.1c0-12.3-2.2-21.6-6.5-28.1c-4.3-6.5-10.6-9.7-18.7-9.7
								c-8.2,0-14.4,3.2-18.7,9.7c-4.3,6.5-6.5,15.8-6.5,28.1c0,12.3,2.2,21.7,6.5,28.1C81,71,87.2,74.2,95.4,74.2z"/>
						</g>
					</g>
				</g>
			</g>
			<g id="ytick_4">
				<g id="line2d_11">
					<g id="g156">
						<g id="use154">
							<path class="st0" d="M57.6,201h-3.5"/>
						</g>
					</g>
				</g>
				<g id="text_11">
					<g id="g163" transform="translate(37.875 204.749662)scale(0.1 -0.1)">
						<g id="use159">
							<path d="M33,40.4c-4.4,0-7.9-1.5-10.5-4.5c-2.6-3-3.9-7.2-3.9-12.4c0-5.2,1.3-9.4,3.9-12.4c2.6-3,6.1-4.6,10.5-4.6
								s7.9,1.5,10.5,4.6c2.6,3.1,3.9,7.2,3.9,12.4c0,5.3-1.3,9.4-3.9,12.4C40.9,38.9,37.4,40.4,33,40.4z M52.6,71.3v-9
								c-2.5,1.2-5,2.1-7.5,2.7c-2.5,0.6-5,0.9-7.5,0.9c-6.5,0-11.5-2.2-14.9-6.6c-3.4-4.4-5.4-11-5.9-19.9c1.9,2.8,4.3,5,7.2,6.5
								c2.9,1.5,6.1,2.3,9.6,2.3c7.3,0,13.1-2.2,17.4-6.7c4.2-4.4,6.4-10.5,6.4-18.1c0-7.5-2.2-13.5-6.6-18
								C46.3,0.8,40.4-1.4,33-1.4c-8.4,0-14.9,3.2-19.3,9.7C9.2,14.7,7,24.1,7,36.4c0,11.5,2.7,20.7,8.2,27.6s12.8,10.3,22,10.3
								c2.5,0,5-0.2,7.5-0.7S49.9,72.3,52.6,71.3z"/>
						</g>
						<g id="use161">
							<path d="M95.4,66.4c-5.1,0-8.9-2.5-11.5-7.5c-2.6-5-3.8-12.5-3.8-22.5c0-10,1.3-17.5,3.8-22.5c2.6-5,6.4-7.5,11.5-7.5
								c5.1,0,8.9,2.5,11.5,7.5c2.6,5,3.8,12.5,3.8,22.5c0,10-1.3,17.5-3.8,22.5C104.4,63.9,100.5,66.4,95.4,66.4z M95.4,74.2
								c8.2,0,14.4-3.2,18.7-9.7c4.3-6.5,6.5-15.8,6.5-28.1c0-12.3-2.2-21.6-6.5-28.1c-4.3-6.5-10.6-9.7-18.7-9.7
								c-8.2,0-14.4,3.2-18.7,9.7c-4.3,6.5-6.5,15.8-6.5,28.1c0,12.3,2.2,21.7,6.5,28.1C81,71,87.2,74.2,95.4,74.2z"/>
						</g>
					</g>
				</g>
			</g>
			<g id="ytick_5">
				<g id="line2d_12">
					<g id="g169">
						<g id="use167">
							<path class="st0" d="M57.6,169.8h-3.5"/>
						</g>
					</g>
				</g>
				<g id="text_12">
					<g id="g179" transform="translate(37.875 173.604643)scale(0.1 -0.1)">
						<g id="use175">
							<path id="DejaVuSans-38" d="M31.8,34.6c-4.7,0-8.4-1.3-11.1-3.8c-2.7-2.5-4-6-4-10.3c0-4.4,1.3-7.8,4-10.4
								c2.7-2.5,6.4-3.8,11.1-3.8s8.4,1.3,11.1,3.8c2.7,2.5,4.1,6,4.1,10.3c0,4.4-1.3,7.8-4,10.3C40.2,33.4,36.5,34.6,31.8,34.6z
								 M21.9,38.8c-4.2,1-7.5,3-9.9,5.9c-2.4,2.9-3.5,6.4-3.5,10.6c0,5.8,2.1,10.4,6.2,13.8c4.2,3.4,9.8,5.1,17.1,5.1
								c7.3,0,13-1.7,17.1-5.1s6.2-8,6.2-13.8c0-4.2-1.2-7.7-3.5-10.6c-2.4-2.9-5.6-4.9-9.8-5.9c4.8-1.1,8.4-3.3,11.1-6.5
								c2.7-3.2,4-7.2,4-11.8c0-7.1-2.2-12.5-6.5-16.3C46,0.5,39.8-1.4,31.8-1.4c-8,0-14.2,1.9-18.5,5.7C8.9,8,6.8,13.4,6.8,20.5
								c0,4.6,1.3,8.6,4,11.8C13.5,35.5,17.2,37.7,21.9,38.8z M18.3,54.4c0-3.8,1.2-6.7,3.5-8.8c2.4-2.1,5.7-3.2,9.9-3.2
								c4.2,0,7.6,1.1,9.9,3.2c2.4,2.1,3.6,5.1,3.6,8.8c0,3.8-1.2,6.7-3.6,8.8c-2.4,2.1-5.7,3.2-9.9,3.2c-4.3,0-7.6-1.1-9.9-3.2
								C19.5,61.1,18.3,58.2,18.3,54.4z"/>
						</g>
						<g id="use177">
							<path d="M95.4,66.4c-5.1,0-8.9-2.5-11.5-7.5c-2.6-5-3.8-12.5-3.8-22.5c0-10,1.3-17.5,3.8-22.5c2.6-5,6.4-7.5,11.5-7.5
								c5.1,0,8.9,2.5,11.5,7.5c2.6,5,3.8,12.5,3.8,22.5c0,10-1.3,17.5-3.8,22.5C104.4,63.9,100.5,66.4,95.4,66.4z M95.4,74.2
								c8.2,0,14.4-3.2,18.7-9.7c4.3-6.5,6.5-15.8,6.5-28.1c0-12.3-2.2-21.6-6.5-28.1c-4.3-6.5-10.6-9.7-18.7-9.7
								c-8.2,0-14.4,3.2-18.7,9.7c-4.3,6.5-6.5,15.8-6.5,28.1c0,12.3,2.2,21.7,6.5,28.1C81,71,87.2,74.2,95.4,74.2z"/>
						</g>
					</g>
				</g>
			</g>
			<g id="ytick_6">
				<g id="line2d_13">
					<g id="g185">
						<g id="use183">
							<path class="st0" d="M57.6,138.7h-3.5"/>
						</g>
					</g>
				</g>
				<g id="text_13">
					<g id="g194" transform="translate(31.5125 142.459625)scale(0.1 -0.1)">
						<g id="use188">
							<path d="M12.4,8.3h16.1v55.6L11,60.4v9l17.4,3.5h9.9V8.3h16.1V0h-42V8.3z"/>
						</g>
						<g id="use190">
							<path d="M95.4,66.4c-5.1,0-8.9-2.5-11.5-7.5c-2.6-5-3.8-12.5-3.8-22.5c0-10,1.3-17.5,3.8-22.5c2.6-5,6.4-7.5,11.5-7.5
								c5.1,0,8.9,2.5,11.5,7.5c2.6,5,3.8,12.5,3.8,22.5c0,10-1.3,17.5-3.8,22.5C104.4,63.9,100.5,66.4,95.4,66.4z M95.4,74.2
								c8.2,0,14.4-3.2,18.7-9.7c4.3-6.5,6.5-15.8,6.5-28.1c0-12.3-2.2-21.6-6.5-28.1c-4.3-6.5-10.6-9.7-18.7-9.7
								c-8.2,0-14.4,3.2-18.7,9.7c-4.3,6.5-6.5,15.8-6.5,28.1c0,12.3,2.2,21.7,6.5,28.1C81,71,87.2,74.2,95.4,74.2z"/>
						</g>
						<g id="use192">
							<path d="M159,66.4c-5.1,0-8.9-2.5-11.5-7.5c-2.6-5-3.8-12.5-3.8-22.5c0-10,1.3-17.5,3.8-22.5c2.6-5,6.4-7.5,11.5-7.5
								c5.1,0,8.9,2.5,11.5,7.5c2.6,5,3.8,12.5,3.8,22.5c0,10-1.3,17.5-3.8,22.5C168,63.9,164.1,66.4,159,66.4z M159,74.2
								c8.2,0,14.4-3.2,18.7-9.7c4.3-6.5,6.5-15.8,6.5-28.1c0-12.3-2.2-21.6-6.5-28.1c-4.3-6.5-10.6-9.7-18.7-9.7
								c-8.2,0-14.4,3.2-18.7,9.7c-4.3,6.5-6.5,15.8-6.5,28.1c0,12.3,2.2,21.7,6.5,28.1C144.6,71,150.9,74.2,159,74.2z"/>
						</g>
					</g>
				</g>
			</g>
			<g id="ytick_7">
				<g id="line2d_14">
					<g id="g200">
						<g id="use198">
							<path class="st0" d="M57.6,107.5h-3.5"/>
						</g>
					</g>
				</g>
				<g id="text_14">
					<g id="g209" transform="translate(31.5125 111.314607)scale(0.1 -0.1)">
						<g id="use203">
							<path d="M12.4,8.3h16.1v55.6L11,60.4v9l17.4,3.5h9.9V8.3h16.1V0h-42V8.3z"/>
						</g>
						<g id="use205">
							<path d="M82.8,8.3h34.4V0H71v8.3c3.7,3.9,8.8,9.1,15.3,15.6c6.5,6.5,10.5,10.7,12.2,12.6c3.2,3.5,5.4,6.5,6.6,9
								c1.3,2.5,1.9,4.9,1.9,7.2c0,3.9-1.4,7-4.1,9.5c-2.7,2.4-6.3,3.7-10.6,3.7c-3.1,0-6.4-0.5-9.8-1.6c-3.4-1.1-7.1-2.7-11-4.9v10
								c4,1.6,7.7,2.8,11.1,3.6c3.5,0.8,6.6,1.2,9.5,1.2c7.6,0,13.6-1.9,18.1-5.7c4.5-3.8,6.7-8.8,6.7-15.1c0-3-0.6-5.8-1.7-8.5
								c-1.1-2.7-3.2-5.8-6.1-9.5c-0.8-0.9-3.4-3.7-7.8-8.2C96.9,22.7,90.8,16.4,82.8,8.3z"/>
						</g>
						<g id="use207">
							<path d="M159,66.4c-5.1,0-8.9-2.5-11.5-7.5c-2.6-5-3.8-12.5-3.8-22.5c0-10,1.3-17.5,3.8-22.5c2.6-5,6.4-7.5,11.5-7.5
								c5.1,0,8.9,2.5,11.5,7.5c2.6,5,3.8,12.5,3.8,22.5c0,10-1.3,17.5-3.8,22.5C168,63.9,164.1,66.4,159,66.4z M159,74.2
								c8.2,0,14.4-3.2,18.7-9.7c4.3-6.5,6.5-15.8,6.5-28.1c0-12.3-2.2-21.6-6.5-28.1c-4.3-6.5-10.6-9.7-18.7-9.7
								c-8.2,0-14.4,3.2-18.7,9.7c-4.3,6.5-6.5,15.8-6.5,28.1c0,12.3,2.2,21.7,6.5,28.1C144.6,71,150.9,74.2,159,74.2z"/>
						</g>
					</g>
				</g>
			</g>
			<g id="ytick_8">
				<g id="line2d_15">
					<g id="g215">
						<g id="use213">
							<path class="st0" d="M57.6,76.4h-3.5"/>
						</g>
					</g>
				</g>
				<g id="text_15">
					<g id="g224" transform="translate(31.5125 80.169588)scale(0.1 -0.1)">
						<g id="use218">
							<path d="M12.4,8.3h16.1v55.6L11,60.4v9l17.4,3.5h9.9V8.3h16.1V0h-42V8.3z"/>
						</g>
						<g id="use220">
							<path d="M101.4,64.3L76.5,25.4h24.9V64.3z M98.8,72.9h12.4V25.4h10.4v-8.2h-10.4V0h-9.8v17.2H68.5v9.5L98.8,72.9z"/>
						</g>
						<g id="use222">
							<path d="M159,66.4c-5.1,0-8.9-2.5-11.5-7.5c-2.6-5-3.8-12.5-3.8-22.5c0-10,1.3-17.5,3.8-22.5c2.6-5,6.4-7.5,11.5-7.5
								c5.1,0,8.9,2.5,11.5,7.5c2.6,5,3.8,12.5,3.8,22.5c0,10-1.3,17.5-3.8,22.5C168,63.9,164.1,66.4,159,66.4z M159,74.2
								c8.2,0,14.4-3.2,18.7-9.7c4.3-6.5,6.5-15.8,6.5-28.1c0-12.3-2.2-21.6-6.5-28.1c-4.3-6.5-10.6-9.7-18.7-9.7
								c-8.2,0-14.4,3.2-18.7,9.7c-4.3,6.5-6.5,15.8-6.5,28.1c0,12.3,2.2,21.7,6.5,28.1C144.6,71,150.9,74.2,159,74.2z"/>
						</g>
					</g>
				</g>
			</g>
			<g id="ytick_9">
				<g id="line2d_16">
					<g id="g230">
						<g id="use228">
							<path class="st0" d="M57.6,45.2h-3.5"/>
						</g>
					</g>
				</g>
				<g id="text_16">
					<g id="g239" transform="translate(31.5125 49.02457)scale(0.1 -0.1)">
						<g id="use233">
							<path d="M12.4,8.3h16.1v55.6L11,60.4v9l17.4,3.5h9.9V8.3h16.1V0h-42V8.3z"/>
						</g>
						<g id="use235">
							<path d="M96.6,40.4c-4.4,0-7.9-1.5-10.5-4.5c-2.6-3-3.9-7.2-3.9-12.4c0-5.2,1.3-9.4,3.9-12.4c2.6-3,6.1-4.6,10.5-4.6
								c4.4,0,7.9,1.5,10.5,4.6c2.6,3.1,3.9,7.2,3.9,12.4c0,5.3-1.3,9.4-3.9,12.4C104.6,38.9,101.1,40.4,96.6,40.4z M116.2,71.3v-9
								c-2.5,1.2-5,2.1-7.5,2.7c-2.5,0.6-5,0.9-7.5,0.9c-6.5,0-11.5-2.2-14.9-6.6c-3.4-4.4-5.4-11-5.9-19.9c1.9,2.8,4.3,5,7.2,6.5
								c2.9,1.5,6.1,2.3,9.6,2.3c7.3,0,13.1-2.2,17.4-6.7c4.2-4.4,6.4-10.5,6.4-18.1c0-7.5-2.2-13.5-6.6-18
								c-4.4-4.5-10.3-6.8-17.7-6.8c-8.4,0-14.9,3.2-19.3,9.7c-4.5,6.5-6.7,15.8-6.7,28.1c0,11.5,2.7,20.7,8.2,27.6
								s12.8,10.3,22,10.3c2.5,0,5-0.2,7.5-0.7C110.8,73,113.5,72.3,116.2,71.3z"/>
						</g>
						<g id="use237">
							<path d="M159,66.4c-5.1,0-8.9-2.5-11.5-7.5c-2.6-5-3.8-12.5-3.8-22.5c0-10,1.3-17.5,3.8-22.5c2.6-5,6.4-7.5,11.5-7.5
								c5.1,0,8.9,2.5,11.5,7.5c2.6,5,3.8,12.5,3.8,22.5c0,10-1.3,17.5-3.8,22.5C168,63.9,164.1,66.4,159,66.4z M159,74.2
								c8.2,0,14.4-3.2,18.7-9.7c4.3-6.5,6.5-15.8,6.5-28.1c0-12.3-2.2-21.6-6.5-28.1c-4.3-6.5-10.6-9.7-18.7-9.7
								c-8.2,0-14.4,3.2-18.7,9.7c-4.3,6.5-6.5,15.8-6.5,28.1c0,12.3,2.2,21.7,6.5,28.1C144.6,71,150.9,74.2,159,74.2z"/>
						</g>
					</g>
				</g>
			</g>
		</g>
		<g id="line2d_17">
			<g>
				<path id="path244" class="st1" d="M73.8,292.4h6.5l6.5,0l6.5,0l6.5,0l6.5,0l6.5,0l6.5,0l6.5,0l6.5,0l6.5,0l6.5,0l6.5,0l6.5,0
					l6.5,0l6.5,0l6.5,0l6.5,0l6.5,0l6.5,0l6.5,0l6.5,0l6.5,0l6.5,0l6.5,0l6.5,0l6.5,0l6.5,0l6.5,0l6.5,0l6.5,0l6.5,0l6.5,0l6.5,0
					l6.5,0l6.5,0l6.5,0l6.5,0l6.5,0l6.5,0l6.5,0l6.5,0l6.5,0l6.5,0l6.5,0l6.5,0l6.5,0l6.5,0l6.5,0l6.5,0l6.5,0"/>
			</g>
		</g>
		<g id="line2d_18">
			<g>
				<path id="path247" class="st2" d="M73.8,282l6.5,0l6.5,0l6.5,0l6.5,0l6.5,0l6.5,0l6.5,0l6.5,0l6.5,0l6.5,0l6.5,0l6.5,0l6.5,0
					l6.5,0l6.5,0l6.5,0l6.5,0l6.5,0l6.5,0l6.5,0l6.5,0l6.5,0l6.5,0l6.5,0l6.5,0l6.5,0l6.5,0l6.5,0l6.5,0l6.5,0l6.5,0l6.5,0l6.5,0
					l6.5,0l6.5,0l6.5,0l6.5,0l6.5,0l6.5,0l6.5,0l6.5,0l6.5,0l6.5,0l6.5,0l6.5,0l6.5,0l6.5,0l6.5,0l6.5,0l6.5,0"/>
			</g>
		</g>
		<g id="line2d_19">
			<g>
				<path id="path250" class="st3" d="M73.8,262.5l6.5,0.1l6.5,0.3l6.5,0.5l6.5,0.6l6.5,0.8l6.5,0.8l6.5,0.9l6.5,0.9l6.5,0.9
					l6.5,0.9l6.5,0.9l6.5,0.9l6.5,0.9l6.5,0.8l6.5,0.8l6.5,0.7l6.5,0.7l6.5,0.7l6.5,0.6l6.5,0.6l6.5,0.5l6.5,0.5l6.5,0.5l6.5,0.5
					l6.5,0.4l6.5,0.4l6.5,0.4l6.5,0.4l6.5,0.3l6.5,0.3l6.5,0.3l6.5,0.3l6.5,0.3l6.5,0.3l6.5,0.2l6.5,0.2l6.5,0.2l6.5,0.2l6.5,0.2
					l6.5,0.2l6.5,0.2l6.5,0.2l6.5,0.2l6.5,0.2l6.5,0.2l6.5,0.1l6.5,0.1l6.5,0.1l6.5,0.1l6.5,0.1"/>
			</g>
		</g>
		<g id="line2d_20">
			<g>
				<path id="path253" class="st4" d="M73.8,259.6l6.5,0l6.5,0l6.5,0l6.5,0l6.5,0l6.5,0l6.5,0l6.5,0l6.5,0l6.5,0l6.5,0l6.5,0l6.5,0
					l6.5,0l6.5,0l6.5,0l6.5,0l6.5,0l6.5,0l6.5,0l6.5,0l6.5,0l6.5,0l6.5,0l6.5,0l6.5,0l6.5,0l6.5,0l6.5,0l6.5,0l6.5,0l6.5,0l6.5,0
					l6.5,0l6.5,0l6.5,0l6.5,0l6.5,0l6.5,0l6.5,0l6.5,0l6.5,0l6.5,0l6.5,0l6.5,0l6.5,0l6.5,0l6.5,0l6.5,0l6.5,0"/>
			</g>
		</g>
		<g id="line2d_21">
			<g>
				<path id="path256" class="st5" d="M73.8,225.9l6.5,0l6.5,0l6.5,0l6.5,0l6.5,0l6.5,0l6.5,0l6.5,0l6.5,0l6.5,0l6.5,0l6.5,0l6.5,0
					l6.5,0l6.5,0l6.5,0l6.5,0l6.5,0l6.5,0l6.5,0l6.5,0l6.5,0l6.5,0l6.5,0l6.5,0l6.5,0l6.5,0l6.5,0l6.5,0l6.5,0l6.5,0l6.5,0l6.5,0
					l6.5,0l6.5,0l6.5,0l6.5,0l6.5,0l6.5,0l6.5,0l6.5,0l6.5,0l6.5,0l6.5,0l6.5,0l6.5,0l6.5,0l6.5,0l6.5,0l6.5,0"/>
			</g>
		</g>
		<g id="line2d_22">
			<g>
				<path id="path259" class="st6" d="M73.8,189.6l6.5-0.2l6.5-0.5l6.5-0.7l6.5-0.9l6.5-1.1l6.5-1.1l6.5-1.2l6.5-1.1l6.5-1l6.5-0.9
					l6.5-0.7l6.5-0.5l6.5-0.3l6.5-0.2l6.5,0l6.5,0.1l6.5,0.3l6.5,0.4l6.5,0.5l6.5,0.6l6.5,0.7l6.5,0.8l6.5,0.8l6.5,0.9l6.5,0.9
					l6.5,0.9l6.5,0.9l6.5,1l6.5,1l6.5,1l6.5,1l6.5,1l6.5,1l6.5,1l6.5,1l6.5,0.9l6.5,0.9l6.5,0.9l6.5,0.9l6.5,0.9l6.5,0.9l6.5,0.9
					l6.5,0.8l6.5,0.8l6.5,0.8l6.5,0.8l6.5,0.8l6.5,0.8l6.5,0.7l6.5,0.7"/>
			</g>
		</g>
		<g id="line2d_23">
			<g>
				<path id="path262" class="st7" d="M73.8,180.5l6.5,0l6.5,0l6.5,0l6.5,0l6.5,0l6.5,0l6.5,0l6.5,0l6.5,0l6.5,0l6.5,0l6.5,0l6.5,0
					l6.5,0l6.5,0l6.5,0l6.5,0l6.5,0l6.5,0l6.5,0l6.5,0l6.5,0l6.5,0l6.5,0l6.5,0l6.5,0l6.5,0l6.5,0l6.5,0l6.5,0l6.5,0l6.5,0l6.5,0
					l6.5,0l6.5,0l6.5,0l6.5,0l6.5,0l6.5,0l6.5,0l6.5,0l6.5,0l6.5,0l6.5,0l6.5,0l6.5,0l6.5,0l6.5,0l6.5,0l6.5,0"/>
			</g>
		</g>
		<g id="line2d_24">
			<g>
				<path id="path265" class="st8" d="M73.8,123l6.5,0l6.5,0l6.5,0l6.5,0l6.5,0l6.5,0l6.5,0l6.5,0l6.5,0l6.5,0l6.5,0l6.5,0l6.5,0
					l6.5,0l6.5,0l6.5,0l6.5,0l6.5,0l6.5,0l6.5,0l6.5,0l6.5,0l6.5,0l6.5,0l6.5,0l6.5,0l6.5,0l6.5,0l6.5,0l6.5,0l6.5,0l6.5,0l6.5,0
					l6.5,0l6.5,0l6.5,0l6.5,0l6.5,0l6.5,0l6.5,0l6.5,0l6.5,0l6.5,0l6.5,0l6.5,0l6.5,0l6.5,0l6.5,0l6.5,0l6.5,0"/>
			</g>
		</g>
		<g id="line2d_25">
			<g>
				<path id="path268" class="st9" d="M73.8,94.7l6.5-0.1l6.5-0.3l6.5-0.4l6.5-0.6l6.5-0.8l6.5-0.9l6.5-1.1l6.5-1.2l6.5-1.3l6.5-1.4
					l6.5-1.4l6.5-1.5l6.5-1.5l6.5-1.4l6.5-1.4l6.5-1.4l6.5-1.3l6.5-1.2l6.5-1.1l6.5-1.1l6.5-1l6.5-0.9l6.5-0.8l6.5-0.7l6.5-0.7
					l6.5-0.6l6.5-0.5l6.5-0.4l6.5-0.4l6.5-0.3l6.5-0.3l6.5-0.2l6.5-0.2l6.5-0.1l6.5-0.1l6.5-0.1l6.5,0l6.5,0l6.5,0l6.5,0.1l6.5,0.1
					l6.5,0.1l6.5,0.2l6.5,0.2l6.5,0.2l6.5,0.2l6.5,0.2l6.5,0.2l6.5,0.3l6.5,0.3"/>
			</g>
		</g>
		<g id="line2d_26">
			<g>
				<path id="path271" class="st10" d="M73.8,53l6.5,0l6.5,0l6.5,0l6.5,0l6.5,0l6.5,0l6.5,0l6.5,0l6.5,0l6.5,0l6.5,0l6.5,0l6.5,0
					l6.5,0l6.5,0l6.5,0l6.5,0l6.5,0l6.5,0l6.5,0l6.5,0l6.5,0l6.5,0l6.5,0l6.5,0l6.5,0l6.5,0l6.5,0l6.5,0l6.5,0l6.5,0l6.5,0l6.5,0
					l6.5,0l6.5,0l6.5,0l6.5,0l6.5,0l6.5,0l6.5,0l6.5,0l6.5,0l6.5,0l6.5,0l6.5,0l6.5,0l6.5,0l6.5,0l6.5,0l6.5,0"/>
			</g>
		</g>
		<g id="patch_3">
			<path id="path274" class="st11" d="M57.6,304.4V41"/>
		</g>
		<g id="patch_4">
		</g>
		<g id="patch_5">
			<path id="path280" class="st11" d="M57.6,304.4h357.1"/>
		</g>
		<g id="patch_6">
		</g>
	</g>
</g>
<text transform="matrix(1 0 0 1 229.1418 335.1343)" class="st12 st13">Force, N</text>
<text transform="matrix(6.123234e-17 -1 1 6.123234e-17 20.5499 207.0098)" class="st12 st13">Frequency, Hz</text>
</svg>
