<?xml version="1.0" encoding="UTF-8" standalone="no"?>
<!-- Created with matplotlib (http://matplotlib.org/) -->

<svg
   xmlns:dc="http://purl.org/dc/elements/1.1/"
   xmlns:cc="http://creativecommons.org/ns#"
   xmlns:rdf="http://www.w3.org/1999/02/22-rdf-syntax-ns#"
   xmlns:svg="http://www.w3.org/2000/svg"
   xmlns="http://www.w3.org/2000/svg"
   xmlns:xlink="http://www.w3.org/1999/xlink"
   xmlns:sodipodi="http://sodipodi.sourceforge.net/DTD/sodipodi-0.dtd"
   xmlns:inkscape="http://www.inkscape.org/namespaces/inkscape"
   height="342pt"
   version="1.1"
   viewBox="0 0 460 342"
   width="460pt"
   id="svg293"
   sodipodi:docname="modaltracking_success_51.svg"
   inkscape:version="0.92.1 r15371">
  <metadata
     id="metadata297">
    <rdf:RDF>
      <cc:Work
         rdf:about="">
        <dc:format>image/svg+xml</dc:format>
        <dc:type
           rdf:resource="http://purl.org/dc/dcmitype/StillImage" />
      </cc:Work>
    </rdf:RDF>
  </metadata>
  <sodipodi:namedview
     pagecolor="#ffffff"
     bordercolor="#666666"
     borderopacity="1"
     objecttolerance="10"
     gridtolerance="10"
     guidetolerance="10"
     inkscape:pageopacity="0"
     inkscape:pageshadow="2"
     inkscape:window-width="3200"
     inkscape:window-height="1675"
     id="namedview295"
     showgrid="false"
     inkscape:zoom="3.4956522"
     inkscape:cx="357.47891"
     inkscape:cy="224.12611"
     inkscape:window-x="-13"
     inkscape:window-y="-13"
     inkscape:window-maximized="1"
     inkscape:current-layer="svg293" />
  <defs
     id="defs4">
    <style
       type="text/css"
       id="style2">
*{stroke-linecap:butt;stroke-linejoin:round;}
  </style>
  </defs>
  <g
     id="figure_1">
    <g
       id="patch_1">
      <path
         d="M 0 342  L 460.8 342  L 460.8 0  L 0 0  z "
         style="fill:#ffffff;"
         id="path6" />
    </g>
    <g
       id="axes_1">
      <g
         id="patch_2">
        <path
           d="M 57.6 304.38  L 414.72 304.38  L 414.72 41.04  L 57.6 41.04  z "
           style="fill:#ffffff;"
           id="path9" />
      </g>
      <g
         id="matplotlib.axis_1">
        <g
           id="xtick_1">
          <g
             id="line2d_1">
            <defs
               id="defs13">
              <path
                 d="M 0 0  L 0 3.5  "
                 id="meff5f38e5f"
                 style="stroke:#000000;stroke-width:0.8;" />
            </defs>
            <g
               id="g17">
              <use
                 style="stroke:#000000;stroke-width:0.8;"
                 x="73.832727"
                 xlink:href="#meff5f38e5f"
                 y="304.38"
                 id="use15" />
            </g>
          </g>
          <g
             id="text_1">
            <!-- 0 -->
            <defs
               id="defs21">
              <path
                 d="M 31.78125 66.40625  Q 24.171875 66.40625 20.328125 58.90625  Q 16.5 51.421875 16.5 36.375  Q 16.5 21.390625 20.328125 13.890625  Q 24.171875 6.390625 31.78125 6.390625  Q 39.453125 6.390625 43.28125 13.890625  Q 47.125 21.390625 47.125 36.375  Q 47.125 51.421875 43.28125 58.90625  Q 39.453125 66.40625 31.78125 66.40625  z M 31.78125 74.21875  Q 44.046875 74.21875 50.515625 64.515625  Q 56.984375 54.828125 56.984375 36.375  Q 56.984375 17.96875 50.515625 8.265625  Q 44.046875 -1.421875 31.78125 -1.421875  Q 19.53125 -1.421875 13.0625 8.265625  Q 6.59375 17.96875 6.59375 36.375  Q 6.59375 54.828125 13.0625 64.515625  Q 19.53125 74.21875 31.78125 74.21875  z "
                 id="DejaVuSans-30" />
            </defs>
            <g
               transform="translate(70.651477 318.978437)scale(0.1 -0.1)"
               id="g25">
              <use
                 xlink:href="#DejaVuSans-30"
                 id="use23" />
            </g>
          </g>
        </g>
        <g
           id="xtick_2">
          <g
             id="line2d_2">
            <g
               id="g31">
              <use
                 style="stroke:#000000;stroke-width:0.8;"
                 x="123.77958"
                 xlink:href="#meff5f38e5f"
                 y="304.38"
                 id="use29" />
            </g>
          </g>
          <g
             id="text_2">
            <!-- 1 -->
            <defs
               id="defs35">
              <path
                 d="M 12.40625 8.296875  L 28.515625 8.296875  L 28.515625 63.921875  L 10.984375 60.40625  L 10.984375 69.390625  L 28.421875 72.90625  L 38.28125 72.90625  L 38.28125 8.296875  L 54.390625 8.296875  L 54.390625 0  L 12.40625 0  z "
                 id="DejaVuSans-31" />
            </defs>
            <g
               transform="translate(120.59833 318.978437)scale(0.1 -0.1)"
               id="g39">
              <use
                 xlink:href="#DejaVuSans-31"
                 id="use37" />
            </g>
          </g>
        </g>
        <g
           id="xtick_3">
          <g
             id="line2d_3">
            <g
               id="g45">
              <use
                 style="stroke:#000000;stroke-width:0.8;"
                 x="173.726434"
                 xlink:href="#meff5f38e5f"
                 y="304.38"
                 id="use43" />
            </g>
          </g>
          <g
             id="text_3">
            <!-- 2 -->
            <defs
               id="defs49">
              <path
                 d="M 19.1875 8.296875  L 53.609375 8.296875  L 53.609375 0  L 7.328125 0  L 7.328125 8.296875  Q 12.9375 14.109375 22.625 23.890625  Q 32.328125 33.6875 34.8125 36.53125  Q 39.546875 41.84375 41.421875 45.53125  Q 43.3125 49.21875 43.3125 52.78125  Q 43.3125 58.59375 39.234375 62.25  Q 35.15625 65.921875 28.609375 65.921875  Q 23.96875 65.921875 18.8125 64.3125  Q 13.671875 62.703125 7.8125 59.421875  L 7.8125 69.390625  Q 13.765625 71.78125 18.9375 73  Q 24.125 74.21875 28.421875 74.21875  Q 39.75 74.21875 46.484375 68.546875  Q 53.21875 62.890625 53.21875 53.421875  Q 53.21875 48.921875 51.53125 44.890625  Q 49.859375 40.875 45.40625 35.40625  Q 44.1875 33.984375 37.640625 27.21875  Q 31.109375 20.453125 19.1875 8.296875  z "
                 id="DejaVuSans-32" />
            </defs>
            <g
               transform="translate(170.545184 318.978437)scale(0.1 -0.1)"
               id="g53">
              <use
                 xlink:href="#DejaVuSans-32"
                 id="use51" />
            </g>
          </g>
        </g>
        <g
           id="xtick_4">
          <g
             id="line2d_4">
            <g
               id="g59">
              <use
                 style="stroke:#000000;stroke-width:0.8;"
                 x="223.673287"
                 xlink:href="#meff5f38e5f"
                 y="304.38"
                 id="use57" />
            </g>
          </g>
          <g
             id="text_4">
            <!-- 3 -->
            <defs
               id="defs63">
              <path
                 d="M 40.578125 39.3125  Q 47.65625 37.796875 51.625 33  Q 55.609375 28.21875 55.609375 21.1875  Q 55.609375 10.40625 48.1875 4.484375  Q 40.765625 -1.421875 27.09375 -1.421875  Q 22.515625 -1.421875 17.65625 -0.515625  Q 12.796875 0.390625 7.625 2.203125  L 7.625 11.71875  Q 11.71875 9.328125 16.59375 8.109375  Q 21.484375 6.890625 26.8125 6.890625  Q 36.078125 6.890625 40.9375 10.546875  Q 45.796875 14.203125 45.796875 21.1875  Q 45.796875 27.640625 41.28125 31.265625  Q 36.765625 34.90625 28.71875 34.90625  L 20.21875 34.90625  L 20.21875 43.015625  L 29.109375 43.015625  Q 36.375 43.015625 40.234375 45.921875  Q 44.09375 48.828125 44.09375 54.296875  Q 44.09375 59.90625 40.109375 62.90625  Q 36.140625 65.921875 28.71875 65.921875  Q 24.65625 65.921875 20.015625 65.03125  Q 15.375 64.15625 9.8125 62.3125  L 9.8125 71.09375  Q 15.4375 72.65625 20.34375 73.4375  Q 25.25 74.21875 29.59375 74.21875  Q 40.828125 74.21875 47.359375 69.109375  Q 53.90625 64.015625 53.90625 55.328125  Q 53.90625 49.265625 50.4375 45.09375  Q 46.96875 40.921875 40.578125 39.3125  z "
                 id="DejaVuSans-33" />
            </defs>
            <g
               transform="translate(220.492037 318.978437)scale(0.1 -0.1)"
               id="g67">
              <use
                 xlink:href="#DejaVuSans-33"
                 id="use65" />
            </g>
          </g>
        </g>
        <g
           id="xtick_5">
          <g
             id="line2d_5">
            <g
               id="g73">
              <use
                 style="stroke:#000000;stroke-width:0.8;"
                 x="273.62014"
                 xlink:href="#meff5f38e5f"
                 y="304.38"
                 id="use71" />
            </g>
          </g>
          <g
             id="text_5">
            <!-- 4 -->
            <defs
               id="defs77">
              <path
                 d="M 37.796875 64.3125  L 12.890625 25.390625  L 37.796875 25.390625  z M 35.203125 72.90625  L 47.609375 72.90625  L 47.609375 25.390625  L 58.015625 25.390625  L 58.015625 17.1875  L 47.609375 17.1875  L 47.609375 0  L 37.796875 0  L 37.796875 17.1875  L 4.890625 17.1875  L 4.890625 26.703125  z "
                 id="DejaVuSans-34" />
            </defs>
            <g
               transform="translate(270.43889 318.978437)scale(0.1 -0.1)"
               id="g81">
              <use
                 xlink:href="#DejaVuSans-34"
                 id="use79" />
            </g>
          </g>
        </g>
        <g
           id="xtick_6">
          <g
             id="line2d_6">
            <g
               id="g87">
              <use
                 style="stroke:#000000;stroke-width:0.8;"
                 x="323.566993"
                 xlink:href="#meff5f38e5f"
                 y="304.38"
                 id="use85" />
            </g>
          </g>
          <g
             id="text_6">
            <!-- 5 -->
            <defs
               id="defs91">
              <path
                 d="M 10.796875 72.90625  L 49.515625 72.90625  L 49.515625 64.59375  L 19.828125 64.59375  L 19.828125 46.734375  Q 21.96875 47.46875 24.109375 47.828125  Q 26.265625 48.1875 28.421875 48.1875  Q 40.625 48.1875 47.75 41.5  Q 54.890625 34.8125 54.890625 23.390625  Q 54.890625 11.625 47.5625 5.09375  Q 40.234375 -1.421875 26.90625 -1.421875  Q 22.3125 -1.421875 17.546875 -0.640625  Q 12.796875 0.140625 7.71875 1.703125  L 7.71875 11.625  Q 12.109375 9.234375 16.796875 8.0625  Q 21.484375 6.890625 26.703125 6.890625  Q 35.15625 6.890625 40.078125 11.328125  Q 45.015625 15.765625 45.015625 23.390625  Q 45.015625 31 40.078125 35.4375  Q 35.15625 39.890625 26.703125 39.890625  Q 22.75 39.890625 18.8125 39.015625  Q 14.890625 38.140625 10.796875 36.28125  z "
                 id="DejaVuSans-35" />
            </defs>
            <g
               transform="translate(320.385743 318.978437)scale(0.1 -0.1)"
               id="g95">
              <use
                 xlink:href="#DejaVuSans-35"
                 id="use93" />
            </g>
          </g>
        </g>
        <g
           id="xtick_7">
          <g
             id="line2d_7">
            <g
               id="g101">
              <use
                 style="stroke:#000000;stroke-width:0.8;"
                 x="373.513846"
                 xlink:href="#meff5f38e5f"
                 y="304.38"
                 id="use99" />
            </g>
          </g>
          <g
             id="text_7">
            <!-- 6 -->
            <defs
               id="defs105">
              <path
                 d="M 33.015625 40.375  Q 26.375 40.375 22.484375 35.828125  Q 18.609375 31.296875 18.609375 23.390625  Q 18.609375 15.53125 22.484375 10.953125  Q 26.375 6.390625 33.015625 6.390625  Q 39.65625 6.390625 43.53125 10.953125  Q 47.40625 15.53125 47.40625 23.390625  Q 47.40625 31.296875 43.53125 35.828125  Q 39.65625 40.375 33.015625 40.375  z M 52.59375 71.296875  L 52.59375 62.3125  Q 48.875 64.0625 45.09375 64.984375  Q 41.3125 65.921875 37.59375 65.921875  Q 27.828125 65.921875 22.671875 59.328125  Q 17.53125 52.734375 16.796875 39.40625  Q 19.671875 43.65625 24.015625 45.921875  Q 28.375 48.1875 33.59375 48.1875  Q 44.578125 48.1875 50.953125 41.515625  Q 57.328125 34.859375 57.328125 23.390625  Q 57.328125 12.15625 50.6875 5.359375  Q 44.046875 -1.421875 33.015625 -1.421875  Q 20.359375 -1.421875 13.671875 8.265625  Q 6.984375 17.96875 6.984375 36.375  Q 6.984375 53.65625 15.1875 63.9375  Q 23.390625 74.21875 37.203125 74.21875  Q 40.921875 74.21875 44.703125 73.484375  Q 48.484375 72.75 52.59375 71.296875  z "
                 id="DejaVuSans-36" />
            </defs>
            <g
               transform="translate(370.332596 318.978437)scale(0.1 -0.1)"
               id="g109">
              <use
                 xlink:href="#DejaVuSans-36"
                 id="use107" />
            </g>
          </g>
        </g>
      </g>
      <g
         id="matplotlib.axis_2">
        <g
           id="ytick_1">
          <g
             id="line2d_8">
            <defs
               id="defs115">
              <path
                 d="M 0 0  L -3.5 0  "
                 id="m32153d3b87"
                 style="stroke:#000000;stroke-width:0.8;" />
            </defs>
            <g
               id="g119">
              <use
                 style="stroke:#000000;stroke-width:0.8;"
                 x="57.6"
                 xlink:href="#m32153d3b87"
                 y="294.385498"
                 id="use117" />
            </g>
          </g>
          <g
             id="text_8">
            <!-- 0 -->
            <g
               transform="translate(44.2375 298.184717)scale(0.1 -0.1)"
               id="g124">
              <use
                 xlink:href="#DejaVuSans-30"
                 id="use122" />
            </g>
          </g>
        </g>
        <g
           id="ytick_2">
          <g
             id="line2d_9">
            <g
               id="g130">
              <use
                 style="stroke:#000000;stroke-width:0.8;"
                 x="57.6"
                 xlink:href="#m32153d3b87"
                 y="263.24048"
                 id="use128" />
            </g>
          </g>
          <g
             id="text_9">
            <!-- 20 -->
            <g
               transform="translate(37.875 267.039698)scale(0.1 -0.1)"
               id="g137">
              <use
                 xlink:href="#DejaVuSans-32"
                 id="use133" />
              <use
                 x="63.623047"
                 xlink:href="#DejaVuSans-30"
                 id="use135" />
            </g>
          </g>
        </g>
        <g
           id="ytick_3">
          <g
             id="line2d_10">
            <g
               id="g143">
              <use
                 style="stroke:#000000;stroke-width:0.8;"
                 x="57.6"
                 xlink:href="#m32153d3b87"
                 y="232.095461"
                 id="use141" />
            </g>
          </g>
          <g
             id="text_10">
            <!-- 40 -->
            <g
               transform="translate(37.875 235.89468)scale(0.1 -0.1)"
               id="g150">
              <use
                 xlink:href="#DejaVuSans-34"
                 id="use146" />
              <use
                 x="63.623047"
                 xlink:href="#DejaVuSans-30"
                 id="use148" />
            </g>
          </g>
        </g>
        <g
           id="ytick_4">
          <g
             id="line2d_11">
            <g
               id="g156">
              <use
                 style="stroke:#000000;stroke-width:0.8;"
                 x="57.6"
                 xlink:href="#m32153d3b87"
                 y="200.950443"
                 id="use154" />
            </g>
          </g>
          <g
             id="text_11">
            <!-- 60 -->
            <g
               transform="translate(37.875 204.749662)scale(0.1 -0.1)"
               id="g163">
              <use
                 xlink:href="#DejaVuSans-36"
                 id="use159" />
              <use
                 x="63.623047"
                 xlink:href="#DejaVuSans-30"
                 id="use161" />
            </g>
          </g>
        </g>
        <g
           id="ytick_5">
          <g
             id="line2d_12">
            <g
               id="g169">
              <use
                 style="stroke:#000000;stroke-width:0.8;"
                 x="57.6"
                 xlink:href="#m32153d3b87"
                 y="169.805425"
                 id="use167" />
            </g>
          </g>
          <g
             id="text_12">
            <!-- 80 -->
            <defs
               id="defs173">
              <path
                 d="M 31.78125 34.625  Q 24.75 34.625 20.71875 30.859375  Q 16.703125 27.09375 16.703125 20.515625  Q 16.703125 13.921875 20.71875 10.15625  Q 24.75 6.390625 31.78125 6.390625  Q 38.8125 6.390625 42.859375 10.171875  Q 46.921875 13.96875 46.921875 20.515625  Q 46.921875 27.09375 42.890625 30.859375  Q 38.875 34.625 31.78125 34.625  z M 21.921875 38.8125  Q 15.578125 40.375 12.03125 44.71875  Q 8.5 49.078125 8.5 55.328125  Q 8.5 64.0625 14.71875 69.140625  Q 20.953125 74.21875 31.78125 74.21875  Q 42.671875 74.21875 48.875 69.140625  Q 55.078125 64.0625 55.078125 55.328125  Q 55.078125 49.078125 51.53125 44.71875  Q 48 40.375 41.703125 38.8125  Q 48.828125 37.15625 52.796875 32.3125  Q 56.78125 27.484375 56.78125 20.515625  Q 56.78125 9.90625 50.3125 4.234375  Q 43.84375 -1.421875 31.78125 -1.421875  Q 19.734375 -1.421875 13.25 4.234375  Q 6.78125 9.90625 6.78125 20.515625  Q 6.78125 27.484375 10.78125 32.3125  Q 14.796875 37.15625 21.921875 38.8125  z M 18.3125 54.390625  Q 18.3125 48.734375 21.84375 45.5625  Q 25.390625 42.390625 31.78125 42.390625  Q 38.140625 42.390625 41.71875 45.5625  Q 45.3125 48.734375 45.3125 54.390625  Q 45.3125 60.0625 41.71875 63.234375  Q 38.140625 66.40625 31.78125 66.40625  Q 25.390625 66.40625 21.84375 63.234375  Q 18.3125 60.0625 18.3125 54.390625  z "
                 id="DejaVuSans-38" />
            </defs>
            <g
               transform="translate(37.875 173.604643)scale(0.1 -0.1)"
               id="g179">
              <use
                 xlink:href="#DejaVuSans-38"
                 id="use175" />
              <use
                 x="63.623047"
                 xlink:href="#DejaVuSans-30"
                 id="use177" />
            </g>
          </g>
        </g>
        <g
           id="ytick_6">
          <g
             id="line2d_13">
            <g
               id="g185">
              <use
                 style="stroke:#000000;stroke-width:0.8;"
                 x="57.6"
                 xlink:href="#m32153d3b87"
                 y="138.660406"
                 id="use183" />
            </g>
          </g>
          <g
             id="text_13">
            <!-- 100 -->
            <g
               transform="translate(31.5125 142.459625)scale(0.1 -0.1)"
               id="g194">
              <use
                 xlink:href="#DejaVuSans-31"
                 id="use188" />
              <use
                 x="63.623047"
                 xlink:href="#DejaVuSans-30"
                 id="use190" />
              <use
                 x="127.246094"
                 xlink:href="#DejaVuSans-30"
                 id="use192" />
            </g>
          </g>
        </g>
        <g
           id="ytick_7">
          <g
             id="line2d_14">
            <g
               id="g200">
              <use
                 style="stroke:#000000;stroke-width:0.8;"
                 x="57.6"
                 xlink:href="#m32153d3b87"
                 y="107.515388"
                 id="use198" />
            </g>
          </g>
          <g
             id="text_14">
            <!-- 120 -->
            <g
               transform="translate(31.5125 111.314607)scale(0.1 -0.1)"
               id="g209">
              <use
                 xlink:href="#DejaVuSans-31"
                 id="use203" />
              <use
                 x="63.623047"
                 xlink:href="#DejaVuSans-32"
                 id="use205" />
              <use
                 x="127.246094"
                 xlink:href="#DejaVuSans-30"
                 id="use207" />
            </g>
          </g>
        </g>
        <g
           id="ytick_8">
          <g
             id="line2d_15">
            <g
               id="g215">
              <use
                 style="stroke:#000000;stroke-width:0.8;"
                 x="57.6"
                 xlink:href="#m32153d3b87"
                 y="76.37037"
                 id="use213" />
            </g>
          </g>
          <g
             id="text_15">
            <!-- 140 -->
            <g
               transform="translate(31.5125 80.169588)scale(0.1 -0.1)"
               id="g224">
              <use
                 xlink:href="#DejaVuSans-31"
                 id="use218" />
              <use
                 x="63.623047"
                 xlink:href="#DejaVuSans-34"
                 id="use220" />
              <use
                 x="127.246094"
                 xlink:href="#DejaVuSans-30"
                 id="use222" />
            </g>
          </g>
        </g>
        <g
           id="ytick_9">
          <g
             id="line2d_16">
            <g
               id="g230">
              <use
                 style="stroke:#000000;stroke-width:0.8;"
                 x="57.6"
                 xlink:href="#m32153d3b87"
                 y="45.225351"
                 id="use228" />
            </g>
          </g>
          <g
             id="text_16">
            <!-- 160 -->
            <g
               transform="translate(31.5125 49.02457)scale(0.1 -0.1)"
               id="g239">
              <use
                 xlink:href="#DejaVuSans-31"
                 id="use233" />
              <use
                 x="63.623047"
                 xlink:href="#DejaVuSans-36"
                 id="use235" />
              <use
                 x="127.246094"
                 xlink:href="#DejaVuSans-30"
                 id="use237" />
            </g>
          </g>
        </g>
      </g>
      <g
         id="line2d_17">
        <path
           clip-path="url(#p30c4c81b7a)"
           d="M 73.832727 292.409999  L 80.325818 292.41  L 86.818909 292.409982  L 93.312 292.409956  L 99.805091 292.409857  L 106.298182 292.409768  L 112.791273 292.40967  L 119.284364 292.409512  L 125.777455 292.409395  L 132.270545 292.409239  L 138.763636 292.409082  L 145.256727 292.408861  L 151.749818 292.408715  L 158.242909 292.408428  L 164.736 292.408183  L 171.229091 292.4079  L 177.722182 292.407638  L 184.215273 292.407348  L 190.708364 292.407017  L 197.201455 292.406701  L 203.694545 292.406423  L 210.187636 292.406068  L 216.680727 292.405721  L 223.173818 292.405362  L 229.666909 292.404945  L 236.16 292.404574  L 242.653091 292.404154  L 249.146182 292.40374  L 255.639273 292.403285  L 262.132364 292.402938  L 268.625455 292.402484  L 275.118545 292.401979  L 281.611636 292.401534  L 288.104727 292.401062  L 294.597818 292.400618  L 301.090909 292.40016  L 307.584 292.39968  L 314.077091 292.399231  L 320.570182 292.398811  L 327.063273 292.398267  L 333.556364 292.397818  L 340.049455 292.397223  L 346.542545 292.396776  L 353.035636 292.396325  L 359.528727 292.395784  L 366.021818 292.395206  L 372.514909 292.394796  L 379.008 292.394261  L 385.501091 292.39371  L 391.994182 292.393275  L 398.487273 292.392822  "
           style="fill:none;stroke:#1f77b4;stroke-linecap:square;stroke-width:1.5;"
           id="path244" />
      </g>
      <g
         id="line2d_18">
        <path
           clip-path="url(#p30c4c81b7a)"
           d="M 73.832727 281.985402  L 80.325818 281.985746  L 86.818909 281.986773  L 93.312 281.988483  L 99.805091 281.990862  L 106.298182 281.993919  L 112.791273 281.997637  L 119.284364 282.002006  L 125.777455 282.00702  L 132.270545 282.012672  L 138.763636 282.018935  L 145.256727 282.025792  L 151.749818 282.033239  L 158.242909 282.041246  L 164.736 282.04981  L 171.229091 282.058886  L 177.722182 282.068482  L 184.215273 282.078569  L 190.708364 282.089113  L 197.201455 282.100099  L 203.694545 282.111513  L 210.187636 282.123315  L 216.680727 282.135515  L 223.173818 282.148055  L 229.666909 282.16091  L 236.16 282.174091  L 242.653091 282.187549  L 249.146182 282.201275  L 255.639273 282.215245  L 262.132364 282.229447  L 268.625455 282.243837  L 275.118545 282.258406  L 281.611636 282.273159  L 288.104727 282.288043  L 294.597818 282.303052  L 301.090909 282.318177  L 307.584 282.333377  L 314.077091 282.348677  L 320.570182 282.364035  L 327.063273 282.379425  L 333.556364 282.394878  L 340.049455 282.41031  L 346.542545 282.425763  L 353.035636 282.441225  L 359.528727 282.45665  L 366.021818 282.472055  L 372.514909 282.487432  L 379.008 282.502747  L 385.501091 282.517993  L 391.994182 282.533216  L 398.487273 282.548369  "
           style="fill:none;stroke:#ff7f0e;stroke-linecap:square;stroke-width:1.5;"
           id="path247" />
      </g>
      <g
         id="line2d_19">
        <path
           clip-path="url(#p30c4c81b7a)"
           d="M 73.832727 262.530594  L 80.325818 262.632753  L 86.818909 262.932931  L 93.312 263.412755  L 99.805091 264.045316  L 106.298182 264.798983  L 112.791273 265.641266  L 119.284364 266.54178  L 125.777455 267.474046  L 132.270545 268.417597  L 138.763636 269.352975  L 145.256727 270.268719  L 151.749818 271.155753  L 158.242909 272.008184  L 164.736 272.823513  L 171.229091 273.59757  L 177.722182 274.330976  L 184.215273 275.024142  L 190.708364 275.678156  L 197.201455 276.294559  L 203.694545 276.875039  L 210.187636 277.421519  L 216.680727 277.93663  L 223.173818 278.420917  L 229.666909 278.876995  L 236.16 279.306682  L 242.653091 279.711881  L 249.146182 280.094037  L 255.639273 280.454829  L 262.132364 280.795702  L 268.625455 281.117966  L 275.118545 281.422934  L 281.611636 281.71171  L 288.104727 281.985438  L 294.597818 282.245061  L 301.090909 282.491532  L 307.584 282.725792  L 314.077091 282.948489  L 320.570182 283.160422  L 327.063273 283.362273  L 333.556364 283.554661  L 340.049455 283.738177  L 346.542545 283.913373  L 353.035636 284.080755  L 359.528727 284.240738  L 366.021818 284.393781  L 372.514909 284.540276  L 379.008 284.680632  L 385.501091 284.815161  L 391.994182 284.944216  L 398.487273 285.068058  "
           style="fill:none;stroke:#2ca02c;stroke-linecap:square;stroke-width:1.5;"
           id="path250" />
      </g>
      <g
         id="line2d_20">
        <path
           clip-path="url(#p30c4c81b7a)"
           d="M 73.832727 259.566526  L 80.325818 259.567409  L 86.818909 259.570054  L 93.312 259.574454  L 99.805091 259.580594  L 106.298182 259.588464  L 112.791273 259.598035  L 119.284364 259.609287  L 125.777455 259.622184  L 132.270545 259.636719  L 138.763636 259.652816  L 145.256727 259.670439  L 151.749818 259.689554  L 158.242909 259.710113  L 164.736 259.732096  L 171.229091 259.755384  L 177.722182 259.77996  L 184.215273 259.805779  L 190.708364 259.832758  L 197.201455 259.860855  L 203.694545 259.890005  L 210.187636 259.920153  L 216.680727 259.951287  L 223.173818 259.983257  L 229.666909 260.016043  L 236.16 260.049606  L 242.653091 260.08387  L 249.146182 260.118788  L 255.639273 260.154297  L 262.132364 260.190369  L 268.625455 260.22692  L 275.118545 260.263914  L 281.611636 260.301321  L 288.104727 260.33906  L 294.597818 260.377116  L 301.090909 260.415435  L 307.584 260.453963  L 314.077091 260.492694  L 320.570182 260.531558  L 327.063273 260.570543  L 333.556364 260.609617  L 340.049455 260.648714  L 346.542545 260.687837  L 353.035636 260.726965  L 359.528727 260.766036  L 366.021818 260.805049  L 372.514909 260.843983  L 379.008 260.882792  L 385.501091 260.921489  L 391.994182 260.960052  L 398.487273 260.998459  "
           style="fill:none;stroke:#d62728;stroke-linecap:square;stroke-width:1.5;"
           id="path253" />
      </g>
      <g
         id="line2d_21">
        <path
           clip-path="url(#p30c4c81b7a)"
           d="M 73.832727 225.862616  L 80.325818 225.863495  L 86.818909 225.86613  L 93.312 225.870514  L 99.805091 225.876633  L 106.298182 225.884475  L 112.791273 225.894013  L 119.284364 225.905226  L 125.777455 225.918081  L 132.270545 225.932568  L 138.763636 225.948612  L 145.256727 225.966184  L 151.749818 225.985243  L 158.242909 226.005747  L 164.736 226.027679  L 171.229091 226.050913  L 177.722182 226.075438  L 184.215273 226.101205  L 190.708364 226.128143  L 197.201455 226.156203  L 203.694545 226.185328  L 210.187636 226.215465  L 216.680727 226.246596  L 223.173818 226.278574  L 229.666909 226.311387  L 236.16 226.344991  L 242.653091 226.379318  L 249.146182 226.414323  L 255.639273 226.449944  L 262.132364 226.486136  L 268.625455 226.522855  L 275.118545 226.56004  L 281.611636 226.597661  L 288.104727 226.63566  L 294.597818 226.674004  L 301.090909 226.712644  L 307.584 226.751542  L 314.077091 226.790667  L 320.570182 226.82998  L 327.063273 226.869445  L 333.556364 226.909047  L 340.049455 226.948725  L 346.542545 226.988474  L 353.035636 227.028266  L 359.528727 227.068058  L 366.021818 227.107836  L 372.514909 227.147589  L 379.008 227.187271  L 385.501091 227.226892  L 391.994182 227.266418  L 398.487273 227.30584  "
           style="fill:none;stroke:#9467bd;stroke-linecap:square;stroke-width:1.5;"
           id="path256" />
      </g>
      <g
         id="line2d_22">
        <path
           clip-path="url(#p30c4c81b7a)"
           d="M 73.832727 189.622978  L 80.325818 189.466427  L 86.818909 189.009252  L 93.312 188.287935  L 99.805091 187.357155  L 106.298182 186.283037  L 112.791273 185.135596  L 119.284364 183.982094  L 125.777455 182.881967  L 132.270545 181.882366  L 138.763636 181.021906  L 145.256727 180.322972  L 151.749818 179.798116  L 158.242909 179.450597  L 164.736 179.276299  L 171.229091 179.266764  L 177.722182 179.40915  L 184.215273 179.689153  L 190.708364 180.091704  L 197.201455 180.601779  L 203.694545 181.204934  L 210.187636 181.887631  L 216.680727 182.638392  L 223.173818 183.444069  L 229.666909 184.29543  L 236.16 185.183491  L 242.653091 186.100328  L 249.146182 187.038972  L 255.639273 187.993358  L 262.132364 188.958208  L 268.625455 189.928952  L 275.118545 190.901664  L 281.611636 191.872965  L 288.104727 192.839977  L 294.597818 193.800257  L 301.090909 194.75173  L 307.584 195.692682  L 314.077091 196.621657  L 320.570182 197.537472  L 327.063273 198.439168  L 333.556364 199.325971  L 340.049455 200.197274  L 346.542545 201.052617  L 353.035636 201.891672  L 359.528727 202.714202  L 366.021818 203.520082  L 372.514909 204.309249  L 379.008 205.081727  L 385.501091 205.837578  L 391.994182 206.576938  L 398.487273 207.299953  "
           style="fill:none;stroke:#8c564b;stroke-linecap:square;stroke-width:1.5;"
           id="path259" />
      </g>
      <g
         id="line2d_23">
        <path
           clip-path="url(#p30c4c81b7a)"
           d="M 73.832727 180.471658  L 80.325818 180.472683  L 86.818909 180.475759  L 93.312 180.480874  L 99.805091 180.488015  L 106.298182 180.497163  L 112.791273 180.508288  L 119.284364 180.521364  L 125.777455 180.53635  L 132.270545 180.553233  L 138.763636 180.571924  L 145.256727 180.592388  L 151.749818 180.614574  L 158.242909 180.638431  L 164.736 180.663938  L 171.229091 180.690947  L 177.722182 180.719444  L 184.215273 180.749362  L 190.708364 180.780624  L 197.201455 180.813171  L 203.694545 180.84693  L 210.187636 180.881844  L 216.680727 180.917885  L 223.173818 180.954881  L 229.666909 180.992821  L 236.16 181.031649  L 242.653091 181.071284  L 249.146182 181.111675  L 255.639273 181.152756  L 262.132364 181.194456  L 268.625455 181.236743  L 275.118545 181.279541  L 281.611636 181.322802  L 288.104727 181.366477  L 294.597818 181.410516  L 301.090909 181.454866  L 307.584 181.499485  L 314.077091 181.544334  L 320.570182 181.58938  L 327.063273 181.634558  L 333.556364 181.679876  L 340.049455 181.725247  L 346.542545 181.770682  L 353.035636 181.816131  L 359.528727 181.861568  L 366.021818 181.906952  L 372.514909 181.952287  L 379.008 181.997535  L 385.501091 182.04267  L 391.994182 182.087685  L 398.487273 182.132558  "
           style="fill:none;stroke:#e377c2;stroke-linecap:square;stroke-width:1.5;"
           id="path262" />
      </g>
      <g
         id="line2d_24">
        <path
           clip-path="url(#p30c4c81b7a)"
           d="M 73.832727 123.017356  L 80.325818 123.018387  L 86.818909 123.021476  L 93.312 123.026615  L 99.805091 123.033788  L 106.298182 123.042977  L 112.791273 123.054153  L 119.284364 123.067289  L 125.777455 123.082343  L 132.270545 123.099304  L 138.763636 123.11808  L 145.256727 123.13864  L 151.749818 123.160932  L 158.242909 123.184902  L 164.736 123.210529  L 171.229091 123.237674  L 177.722182 123.266311  L 184.215273 123.296377  L 190.708364 123.3278  L 197.201455 123.360519  L 203.694545 123.394455  L 210.187636 123.429557  L 216.680727 123.4658  L 223.173818 123.503009  L 229.666909 123.541171  L 236.16 123.580236  L 242.653091 123.620116  L 249.146182 123.660761  L 255.639273 123.702115  L 262.132364 123.744106  L 268.625455 123.786688  L 275.118545 123.829806  L 281.611636 123.873393  L 288.104727 123.917415  L 294.597818 123.961813  L 301.090909 124.006541  L 307.584 124.051555  L 314.077091 124.09682  L 320.570182 124.142292  L 327.063273 124.187919  L 333.556364 124.233697  L 340.049455 124.279557  L 346.542545 124.325495  L 353.035636 124.371465  L 359.528727 124.417444  L 366.021818 124.463398  L 372.514909 124.509319  L 379.008 124.555169  L 385.501091 124.600933  L 391.994182 124.646595  L 398.487273 124.692128  "
           style="fill:none;stroke:#7f7f7f;stroke-linecap:square;stroke-width:1.5;"
           id="path265" />
      </g>
      <g
         id="line2d_25">
        <path
           clip-path="url(#p30c4c81b7a)"
           d="M 73.832727 94.726688  L 80.325818 94.639743  L 86.818909 94.379217  L 93.312 93.946746  L 99.805091 93.345482  L 106.298182 92.581055  L 112.791273 91.662359  L 119.284364 90.602181  L 125.777455 89.41742  L 132.270545 88.127042  L 138.763636 86.757917  L 145.256727 85.333935  L 151.749818 83.880678  L 158.242909 82.422568  L 164.736 80.979721  L 171.229091 79.575129  L 177.722182 78.222377  L 184.215273 76.933478  L 190.708364 75.71714  L 197.201455 74.579147  L 203.694545 73.522804  L 210.187636 72.54941  L 216.680727 71.657802  L 223.173818 70.848424  L 229.666909 70.117916  L 236.16 69.463339  L 242.653091 68.881353  L 249.146182 68.368384  L 255.639273 67.920744  L 262.132364 67.534717  L 268.625455 67.20663  L 275.118545 66.932896  L 281.611636 66.710043  L 288.104727 66.53474  L 294.597818 66.403806  L 301.090909 66.314212  L 307.584 66.263095  L 314.077091 66.247743  L 320.570182 66.265599  L 327.063273 66.31426  L 333.556364 66.391461  L 340.049455 66.495077  L 346.542545 66.623113  L 353.035636 66.773699  L 359.528727 66.94508  L 366.021818 67.135616  L 372.514909 67.343767  L 379.008 67.568094  L 385.501091 67.807249  L 391.994182 68.059974  L 398.487273 68.325088  "
           style="fill:none;stroke:#bcbd22;stroke-linecap:square;stroke-width:1.5;"
           id="path268" />
      </g>
      <g
         id="line2d_26">
        <path
           clip-path="url(#p30c4c81b7a)"
           d="M 73.832727 53.01  L 80.325818 53.011102  L 86.818909 53.014407  L 93.312 53.019904  L 99.805091 53.027576  L 106.298182 53.037404  L 112.791273 53.049355  L 119.284364 53.0634  L 125.777455 53.079494  L 132.270545 53.097624  L 138.763636 53.117689  L 145.256727 53.139657  L 151.749818 53.16347  L 158.242909 53.18907  L 164.736 53.216432  L 171.229091 53.245408  L 177.722182 53.275967  L 184.215273 53.308042  L 190.708364 53.341554  L 197.201455 53.376435  L 203.694545 53.412604  L 210.187636 53.450002  L 216.680727 53.488604  L 223.173818 53.528222  L 229.666909 53.56884  L 236.16 53.610398  L 242.653091 53.652814  L 249.146182 53.696029  L 255.639273 53.739975  L 262.132364 53.784592  L 268.625455 53.829809  L 275.118545 53.875583  L 281.611636 53.921845  L 288.104727 53.968543  L 294.597818 54.015626  L 301.090909 54.063043  L 307.584 54.110751  L 314.077091 54.158706  L 320.570182 54.206856  L 327.063273 54.255167  L 333.556364 54.303608  L 340.049455 54.352134  L 346.542545 54.400714  L 353.035636 54.449323  L 359.528727 54.497919  L 366.021818 54.546486  L 372.514909 54.594997  L 379.008 54.643422  L 385.501091 54.691738  L 391.994182 54.739947  L 398.487273 54.787992  "
           style="fill:none;stroke:#17becf;stroke-linecap:square;stroke-width:1.5;"
           id="path271" />
      </g>
      <g
         id="patch_3">
        <path
           d="M 57.6 304.38  L 57.6 41.04  "
           style="fill:none;stroke:#000000;stroke-linecap:square;stroke-linejoin:miter;stroke-width:0.8;"
           id="path274" />
      </g>
      <g
         id="patch_4" />
      <g
         id="patch_5">
        <path
           d="M 57.6 304.38  L 414.72 304.38  "
           style="fill:none;stroke:#000000;stroke-linecap:square;stroke-linejoin:miter;stroke-width:0.8;"
           id="path280" />
      </g>
      <g
         id="patch_6" />
    </g>
  </g>
  <defs
     id="defs291">
    <clipPath
       id="p30c4c81b7a">
      <rect
         height="263.34"
         width="357.12"
         x="57.6"
         y="41.04"
         id="rect288" />
    </clipPath>
  </defs>
  <text
     xml:space="preserve"
     style="font-style:normal;font-weight:normal;font-size:30px;line-height:18.75px;font-family:sans-serif;letter-spacing:0px;word-spacing:0px;fill:#000000;fill-opacity:1;stroke:none;stroke-width:0.75;stroke-linecap:butt;stroke-linejoin:round"
     x="229.1418"
     y="335.13434"
     id="text196"><tspan
       sodipodi:role="line"
       id="tspan194"
       style="stroke-width:0.75;stroke-linecap:butt;stroke-linejoin:round;font-size:12.0000002px"
       x="229.1418"
       y="335.13434">Force, N</tspan></text>
  <text
     xml:space="preserve"
     style="font-style:normal;font-weight:normal;font-size:30px;line-height:18.75px;font-family:sans-serif;letter-spacing:0px;word-spacing:0px;fill:#000000;fill-opacity:1;stroke:none;stroke-width:0.75;stroke-linecap:butt;stroke-linejoin:round"
     x="-207.00945"
     y="20.54985"
     id="text196-6"
     transform="rotate(-90)"><tspan
       sodipodi:role="line"
       id="tspan194-9"
       style="font-size:12px;stroke-width:0.75;stroke-linecap:butt;stroke-linejoin:round"
       x="-207.00945"
       y="20.54985">Frequency, Hz</tspan></text>
</svg>
